<?xml version="1.0" encoding="utf-8"?>
<!-- Generator: Adobe Illustrator 26.2.1, SVG Export Plug-In . SVG Version: 6.00 Build 0)  -->
<svg version="1.1" id="Layer_1" xmlns="http://www.w3.org/2000/svg" xmlns:xlink="http://www.w3.org/1999/xlink" x="0px" y="0px"
	 viewBox="0 0 1200 1000" style="enable-background:new 0 0 1200 1000;" xml:space="preserve">
<style type="text/css">
	.st0{fill:#E61C2B;}
	.st1{fill:#4D4D4D;}
</style>
<g>
	<g>
		<g>
			<path class="st0" d="M329.9,451.5c-23.8,13.4-47.6,26.8-71.4,40.3c-1.7,1-3.9,0.9-5.5-0.1c-4.8-2.9-9.7-5.8-14.5-8.7
				c-1.6-1-2.7-2.8-2.6-4.7c0-1.9,1.1-3.7,2.7-4.7c28.7-16.1,57.5-32.2,86.2-48.3c-0.1,0.2-0.2,0.4-0.2,0.6c-1.3,4.5,2.5,8,2.9,8.4
				l0.1,0.1l0.1,0.1c0.5,0.3,0.7,0.6,0.7,0.7c0,0.1,0,0.2-0.1,0.3c-2.1,1.9-3,3.8-2.6,5.8c0.3,2,1.9,3.4,3.2,4.1c-1,1.5-1,3.3,0,5.1
				C329.3,451,329.5,451.3,329.9,451.5z"/>
			<path class="st0" d="M186.4,482c1.2-0.2,2.3,0.1,3.3,0.7c40,22.1,80,44.3,120,66.4c1.3,0.7,3,0.9,4.4,0.4c0.7-0.3,1.4-0.7,2-1.1
				c3.7-2.1,7.4-4.3,11.1-6.4c2.2-1.3,5.2-0.7,6.7,1.3c0.8,1,1.3,2.3,1.2,3.6c0,4.8,0,9.7,0,14.5c0,1.5,0.1,3.1-0.8,4.4
				c-0.8,1.4-2.3,2.1-3.6,3c-6.2,3.9-12.4,7.8-18.6,11.7c-1.3,0.9-3.1,1.1-4.6,0.6c-0.7-0.2-1.3-0.6-1.9-0.9
				c-40-22.3-80.1-44.5-120.1-66.8c-0.7-0.4-1.4-0.7-2-1.2c-1.3-1-2-2.6-2-4.2c0-6.9,0-13.9,0-20.8
				C181.7,484.6,183.8,482.3,186.4,482z"/>
			<path class="st0" d="M328.9,482c3-0.6,6.2,1.9,6.3,4.9c0,5.8,0,11.5,0,17.3c0,1.9-1,3.8-2.7,4.8c-7.8,4.4-15.6,8.8-23.4,13.2
				c-1.4,0.8-3.1,1-4.6,0.4c-0.8-0.3-1.5-0.8-2.2-1.3c-4.3-2.9-8.5-5.8-12.8-8.7c-0.8-0.5-1.5-1.2-1.9-2c-1.1-1.9-0.8-4.5,0.7-6.1
				c0.6-0.7,1.4-1.1,2.2-1.5c12-6.6,24-13.2,35.9-19.8C327.2,482.6,328,482.1,328.9,482z"/>
		</g>
		<g>
			<path class="st1" d="M372.8,447.7c1.6-3.4,3.7-5.9,5.5-7.5c1.9-1.7,4.4-2.6,6.9-2.6h7.8c1.6,0,3.2,0.3,4.7,0.7
				c11.7,3,18.9-5,18.9-5s-7.2-8-18.9-5c-1.5,0.4-3.1,0.7-4.7,0.7h-7.8c-2.6,0-5-0.9-6.9-2.6c-1.8-1.6-3.9-4.1-5.5-7.5h-13.4v28.9
				H372.8z M410.2,431.8c0.8,0,1.4,0.6,1.4,1.4c0,0.8-0.6,1.4-1.4,1.4c-0.8,0-1.4-0.6-1.4-1.4C408.8,432.5,409.4,431.8,410.2,431.8z
				"/>
			<path class="st0" d="M358,418.8l-7.4,0.3c-3.7,0-7.3,0.4-10.9,1c-19.7,3.7-10.3,12-10.3,12c3.5,2.4,1.2,5.4,1.2,5.4
				c-4.5,3.8,0,5.5,0,5.5c2.9,1.2,1.4,3.5,1.4,3.5c-1.1,0.9-0.8,2-0.4,2.6c0.2,0.4,0.6,0.5,1,0.4c1.2-0.3,2.3-0.6,3.4-0.9
				c0,0.4,0,0.8,0,1.1c-0.1,0.9,0,1.9-0.3,2.8c-0.2,0.1-0.4,0-0.5,0.2c-0.2,0.6,0.3,1,0.6,1.4c0.1,0.3,0.4,0.3,0.7,0.2
				c0.4-0.3,0.5-0.8,0.4-1.2c-0.1-0.5-0.3-1-0.4-1.6c-0.1-1-0.1-2.1-0.1-3.1c1-0.2,2-0.5,2.9-0.7c0.1,0.1,0.3,0.3,0.3,0.4
				c0.2,0.4,0.3,0.8,0.4,1.2c0.2,1.8,0.3,3.6-0.1,5.3c0,0.4-0.5,0.3-0.6,0.6c0.1,0.5,0.4,0.9,0.6,1.3c0.2,0.4,0.7,0.3,0.9,0
				c0.3-0.3,0.3-0.7,0.2-1.1c-0.5-1.6-0.6-3.4-0.5-5.1c0.1-0.2,0.3-0.5,0.6-0.4c0.2,0,0.3,0.3,0.4,0.5c0.1,0.4,0.7,0.7,1.1,0.6
				c0.4-0.2,0.8-0.6,1.2-0.3c1.1,0.7,1.4,2.1,1.5,3.3c0,1.7,0,3.3,0.1,5c0,2,0,4.1,0,6.1c-0.2,0.6-0.1,1.4-0.4,2
				c-0.1,0.2-0.4,0.2-0.4,0.5c0.1,0.4,0.4,0.7,0.7,1c0.3,0.4,0.9,0.1,1.1-0.2c0.2-0.8-0.2-1.5-0.3-2.2c-0.3-1.4-0.2-2.9-0.2-4.3
				c0-1.3-0.1-2.6,0.2-3.8c0.2-0.6,1.1-0.2,1.1,0.3c0.1,1.2,0,2.5,0,3.7c0,0.8-0.3,1.5-0.4,2.2c0,0.3-0.5,0.3-0.4,0.6
				c0.1,0.5,0.4,0.9,0.7,1.4c0.4,0.1,0.9-0.1,1-0.5c0.2-0.5,0-1.1-0.1-1.6c-0.4-1.7-0.2-3.4-0.2-5.1c0.2-3-0.1-6.1,0.4-9.1
				c0.1-0.5,0.3-1,0.7-1.3c0.4-0.2,0.9,0,1.1,0.4c0.1,0.2,0.3,0.5,0.6,0.4c0.3,0,0.7-0.2,0.8,0.1c0.4,0.8,0.3,1.7,0.3,2.5
				c0,1.3-0.1,2.7-0.5,4c-0.1,0.2-0.5,0.2-0.5,0.5c-0.1,0.3,0.1,0.6,0.3,0.8c0.2,0.3,0.3,0.6,0.5,0.9c0.4,0.1,0.7-0.1,0.9-0.4
				c0.5-0.6,0.2-1.3,0-1.9c-0.4-1.6-0.2-3.2-0.2-4.8c0.2-0.7,0.1-1.4,0.3-2c0.2-0.7,0.6-1.4,1.3-1.5c0.5-0.2,1.2,0.1,1.7-0.3
				c0-0.1,0-0.3,0-0.4c1.8,0.4,2.5,0.8,2.5,0.8V418.8z"/>
		</g>
	</g>
	<g>
		<g>
			<path class="st1" d="M356.6,554.5c-0.1-0.3-0.1-0.6,0-1s0.4-0.5,0.7-0.7c0.3-0.1,0.6-0.1,1,0s0.5,0.3,0.7,0.7l7,16.2l6.9-16.2
				c0.1-0.3,0.4-0.5,0.7-0.7c0.3-0.1,0.6-0.1,1,0c0.3,0.1,0.5,0.3,0.7,0.7c0.1,0.3,0.1,0.6,0,1l-8.1,18.8l-0.1,0.1
				c-0.1,0.3-0.4,0.5-0.7,0.6s-0.6,0.1-0.9,0l-0.2-0.1c-0.2-0.1-0.4-0.3-0.5-0.6L356.6,554.5z"/>
			<path class="st1" d="M404.6,553.4c1.3,0.6,2.5,1.3,3.5,2.3c1,1,1.8,2.1,2.3,3.5s0.9,2.7,0.9,4.2s-0.3,2.9-0.9,4.2
				c-0.6,1.3-1.4,2.5-2.3,3.4c-1,1-2.1,1.8-3.5,2.3c-1.3,0.6-2.7,0.8-4.2,0.8c-1,0-2-0.1-2.9-0.4c-0.9-0.3-1.8-0.6-2.6-1.1
				c-0.8-0.5-1.5-1-2.2-1.7c-0.7-0.7-1.2-1.4-1.7-2.2s-0.8-1.7-1.1-2.6c-0.3-0.9-0.4-1.9-0.4-2.9s0.1-2,0.4-2.9
				c0.3-0.9,0.6-1.8,1.1-2.6c0.5-0.8,1-1.5,1.7-2.2c0.7-0.7,1.4-1.2,2.2-1.7c0.8-0.5,1.7-0.8,2.6-1.1c0.9-0.3,1.9-0.4,2.9-0.4
				C401.9,552.6,403.3,552.9,404.6,553.4z M397.2,555.8c-1,0.4-1.9,1-2.6,1.8c-0.8,0.8-1.3,1.6-1.8,2.6s-0.7,2.1-0.7,3.3
				s0.2,2.2,0.7,3.3c0.4,1,1,1.9,1.8,2.7c0.8,0.8,1.6,1.3,2.6,1.8c1,0.4,2.1,0.7,3.2,0.7c1.2,0,2.2-0.2,3.3-0.7c1-0.4,1.9-1,2.7-1.8
				c0.8-0.8,1.4-1.6,1.8-2.7c0.4-1,0.7-2.1,0.7-3.3s-0.2-2.2-0.7-3.3s-1-1.9-1.8-2.6c-0.8-0.7-1.6-1.3-2.7-1.8
				c-1-0.4-2.1-0.7-3.3-0.7C399.2,555.1,398.2,555.3,397.2,555.8z"/>
			<path class="st1" d="M431.8,563.5c-0.8-0.3-1.5-0.7-2.1-1.2c-0.6-0.5-1.1-1-1.5-1.7c-0.4-0.6-0.6-1.4-0.6-2.3
				c0-0.9,0.2-1.7,0.6-2.4c0.4-0.7,0.9-1.3,1.5-1.8c0.6-0.5,1.3-0.9,2.1-1.2c0.8-0.3,1.6-0.4,2.4-0.4c0.6,0,1.3,0.1,1.9,0.2
				c0.6,0.1,1.2,0.3,1.7,0.6c0.5,0.3,1,0.6,1.5,1c0.4,0.4,0.8,0.8,1.1,1.4c0.1,0.2,0.2,0.5,0.1,0.7c-0.1,0.2-0.2,0.4-0.3,0.6
				c-0.2,0.2-0.4,0.3-0.7,0.3c-0.3,0-0.6-0.1-0.9-0.3c-0.3-0.4-0.6-0.7-1-0.9c-0.3-0.2-0.7-0.5-1-0.6c-0.4-0.2-0.7-0.3-1.1-0.3
				c-0.4-0.1-0.8-0.1-1.3-0.1c-0.5,0-1,0.1-1.5,0.2c-0.5,0.1-0.9,0.4-1.3,0.6c-0.4,0.3-0.7,0.6-1,1c-0.3,0.4-0.4,0.9-0.4,1.4
				c0,0.6,0.2,1,0.5,1.4c0.3,0.4,0.7,0.7,1.2,1c0.5,0.3,1,0.5,1.6,0.6c0.6,0.2,1.2,0.3,1.7,0.5c0.8,0.2,1.6,0.5,2.4,0.8
				c0.8,0.3,1.5,0.7,2.1,1.2c0.6,0.5,1.1,1,1.4,1.7c0.4,0.7,0.5,1.4,0.5,2.3c0,1-0.2,1.8-0.6,2.6c-0.4,0.8-0.9,1.5-1.6,2
				c-0.7,0.6-1.4,1-2.3,1.3c-0.9,0.3-1.8,0.5-2.8,0.5c-0.8,0-1.6-0.1-2.3-0.3s-1.4-0.5-2.1-0.9c-0.6-0.4-1.2-0.8-1.6-1.3
				c-0.5-0.5-0.8-1-1.1-1.6c-0.2-0.4-0.2-0.8-0.1-1.1c0.1-0.3,0.3-0.5,0.6-0.7c0.3-0.2,0.6-0.2,0.9-0.1c0.3,0.1,0.5,0.3,0.8,0.7
				c0.2,0.4,0.5,0.8,0.8,1.1c0.3,0.3,0.7,0.6,1.2,0.9c0.4,0.2,0.9,0.4,1.4,0.5c0.5,0.1,1,0.2,1.6,0.2c0.6,0,1.1-0.1,1.7-0.2
				c0.6-0.2,1-0.4,1.5-0.7c0.4-0.3,0.8-0.7,1.1-1.2s0.4-1,0.4-1.7c0-0.6-0.1-1.1-0.4-1.5s-0.6-0.7-1.1-1c-0.4-0.3-0.9-0.5-1.5-0.7
				c-0.6-0.2-1.1-0.4-1.7-0.5C433.5,564,432.6,563.8,431.8,563.5z"/>
			<path class="st1" d="M486.9,555.2v17.6c0,0.3-0.1,0.6-0.4,0.9c-0.2,0.2-0.5,0.4-0.9,0.4c-0.4,0-0.6-0.1-0.9-0.4
				c-0.2-0.2-0.3-0.5-0.3-0.9v-17.6h-4.9c-0.4,0-0.7-0.1-0.9-0.4c-0.2-0.2-0.4-0.5-0.4-0.9c0-0.4,0.1-0.7,0.4-0.9
				c0.2-0.2,0.5-0.4,0.9-0.4H492c0.4,0,0.7,0.1,0.9,0.4c0.2,0.2,0.4,0.5,0.4,0.9c0,0.4-0.1,0.7-0.4,0.9c-0.2,0.2-0.5,0.4-0.9,0.4
				H486.9z"/>
			<path class="st1" d="M511,574.1c-0.3,0-0.6-0.2-0.8-0.4c-0.2-0.2-0.3-0.5-0.3-0.9V554c0-0.4,0.1-0.7,0.4-0.9
				c0.2-0.2,0.5-0.4,0.9-0.4h9.3c0.4,0,0.7,0.1,0.9,0.4c0.2,0.2,0.4,0.5,0.4,0.9s-0.1,0.7-0.4,0.9c-0.2,0.2-0.5,0.4-0.9,0.4h-8.1v7
				h5.9c0.4,0,0.7,0.1,0.9,0.3c0.2,0.2,0.4,0.5,0.4,0.9c0,0.3-0.1,0.6-0.4,0.9c-0.2,0.2-0.5,0.3-0.9,0.3h-5.9v6.9h8.1
				c0.4,0,0.7,0.1,0.9,0.4c0.2,0.2,0.4,0.5,0.4,0.9c0,0.4-0.1,0.7-0.4,0.9c-0.2,0.2-0.5,0.4-0.9,0.4H511z"/>
			<path class="st1" d="M541.3,572.9c0,0.3-0.1,0.6-0.4,0.9c-0.2,0.2-0.5,0.4-0.9,0.4s-0.6-0.1-0.9-0.4c-0.2-0.2-0.4-0.5-0.4-0.9
				V554c0-0.4,0.1-0.7,0.4-0.9c0.2-0.2,0.5-0.4,0.9-0.4s0.6,0.1,0.9,0.4c0.2,0.2,0.4,0.5,0.4,0.9V572.9z"/>
			<path class="st1" d="M561.9,553.4l11.1,15.7V554c0-0.3,0.1-0.6,0.4-0.9c0.2-0.2,0.5-0.4,0.9-0.4c0.4,0,0.7,0.1,0.9,0.4
				c0.2,0.2,0.4,0.5,0.4,0.9v18.9c0,0.3-0.1,0.6-0.3,0.8c-0.2,0.2-0.4,0.4-0.7,0.4l-0.1,0h-0.2c-0.3,0-0.5-0.1-0.7-0.3
				c-0.1-0.1-0.2-0.1-0.2-0.2l-11.2-15.8v15.1c0,0.3-0.1,0.6-0.4,0.9c-0.2,0.2-0.5,0.4-0.9,0.4s-0.6-0.1-0.9-0.4
				c-0.2-0.2-0.4-0.5-0.4-0.9V554c0-0.3,0.1-0.6,0.4-0.9c0.2-0.2,0.5-0.3,0.8-0.4h0.1h0.1l0.2,0l0.2,0.1c0,0,0,0,0.1,0l0.1,0.1l0,0
				c0,0,0.1,0,0.1,0.1l0,0c0,0,0,0,0,0l0,0l0.1,0.1l0.1,0.1h0L561.9,553.4L561.9,553.4z"/>
			<path class="st1" d="M599.9,555.2v17.6c0,0.3-0.1,0.6-0.4,0.9c-0.2,0.2-0.5,0.4-0.9,0.4c-0.4,0-0.6-0.1-0.9-0.4
				c-0.2-0.2-0.3-0.5-0.3-0.9v-17.6h-4.9c-0.4,0-0.7-0.1-0.9-0.4c-0.2-0.2-0.4-0.5-0.4-0.9c0-0.4,0.1-0.7,0.4-0.9
				c0.2-0.2,0.5-0.4,0.9-0.4H605c0.4,0,0.7,0.1,0.9,0.4c0.2,0.2,0.4,0.5,0.4,0.9c0,0.4-0.1,0.7-0.4,0.9c-0.2,0.2-0.5,0.4-0.9,0.4
				H599.9z"/>
			<path class="st1" d="M624,574.1c-0.3,0-0.6-0.2-0.8-0.4c-0.2-0.2-0.3-0.5-0.3-0.9V554c0-0.4,0.1-0.7,0.4-0.9
				c0.2-0.2,0.5-0.4,0.9-0.4h9.3c0.4,0,0.7,0.1,0.9,0.4c0.2,0.2,0.4,0.5,0.4,0.9s-0.1,0.7-0.4,0.9c-0.2,0.2-0.5,0.4-0.9,0.4h-8.1v7
				h5.9c0.4,0,0.7,0.1,0.9,0.3c0.2,0.2,0.4,0.5,0.4,0.9c0,0.3-0.1,0.6-0.4,0.9c-0.2,0.2-0.5,0.3-0.9,0.3h-5.9v6.9h8.1
				c0.4,0,0.7,0.1,0.9,0.4c0.2,0.2,0.4,0.5,0.4,0.9c0,0.4-0.1,0.7-0.4,0.9c-0.2,0.2-0.5,0.4-0.9,0.4H624z"/>
			<path class="st1" d="M655.4,563.5c-0.8-0.3-1.5-0.7-2.1-1.2c-0.6-0.5-1.1-1-1.5-1.7c-0.4-0.6-0.6-1.4-0.6-2.3
				c0-0.9,0.2-1.7,0.6-2.4c0.4-0.7,0.9-1.3,1.5-1.8c0.6-0.5,1.3-0.9,2.1-1.2c0.8-0.3,1.6-0.4,2.4-0.4c0.6,0,1.3,0.1,1.9,0.2
				c0.6,0.1,1.2,0.3,1.7,0.6c0.5,0.3,1,0.6,1.5,1c0.4,0.4,0.8,0.8,1.1,1.4c0.1,0.2,0.2,0.5,0.1,0.7c-0.1,0.2-0.2,0.4-0.3,0.6
				c-0.2,0.2-0.4,0.3-0.7,0.3c-0.3,0-0.6-0.1-0.9-0.3c-0.3-0.4-0.6-0.7-1-0.9c-0.3-0.2-0.7-0.5-1-0.6c-0.4-0.2-0.7-0.3-1.1-0.3
				c-0.4-0.1-0.8-0.1-1.3-0.1c-0.5,0-1,0.1-1.5,0.2c-0.5,0.1-0.9,0.4-1.3,0.6c-0.4,0.3-0.7,0.6-1,1c-0.3,0.4-0.4,0.9-0.4,1.4
				c0,0.6,0.2,1,0.5,1.4c0.3,0.4,0.7,0.7,1.2,1c0.5,0.3,1,0.5,1.6,0.6c0.6,0.2,1.2,0.3,1.7,0.5c0.8,0.2,1.6,0.5,2.4,0.8
				c0.8,0.3,1.5,0.7,2.1,1.2c0.6,0.5,1.1,1,1.4,1.7c0.4,0.7,0.5,1.4,0.5,2.3c0,1-0.2,1.8-0.6,2.6c-0.4,0.8-0.9,1.5-1.6,2
				c-0.7,0.6-1.4,1-2.3,1.3c-0.9,0.3-1.8,0.5-2.8,0.5c-0.8,0-1.6-0.1-2.3-0.3s-1.4-0.5-2.1-0.9c-0.6-0.4-1.2-0.8-1.6-1.3
				c-0.5-0.5-0.8-1-1.1-1.6c-0.2-0.4-0.2-0.8-0.1-1.1c0.1-0.3,0.3-0.5,0.6-0.7c0.3-0.2,0.6-0.2,0.9-0.1c0.3,0.1,0.5,0.3,0.8,0.7
				c0.2,0.4,0.5,0.8,0.8,1.1s0.7,0.6,1.2,0.9c0.4,0.2,0.9,0.4,1.4,0.5c0.5,0.1,1,0.2,1.6,0.2c0.6,0,1.1-0.1,1.7-0.2
				c0.6-0.2,1-0.4,1.5-0.7c0.4-0.3,0.8-0.7,1.1-1.2c0.3-0.5,0.4-1,0.4-1.7c0-0.6-0.1-1.1-0.4-1.5s-0.6-0.7-1.1-1
				c-0.4-0.3-0.9-0.5-1.5-0.7c-0.6-0.2-1.1-0.4-1.7-0.5C657,564,656.2,563.8,655.4,563.5z"/>
			<path class="st1" d="M707.5,563.5c-0.8-0.3-1.5-0.7-2.1-1.2c-0.6-0.5-1.1-1-1.5-1.7c-0.4-0.6-0.6-1.4-0.6-2.3
				c0-0.9,0.2-1.7,0.6-2.4c0.4-0.7,0.9-1.3,1.5-1.8c0.6-0.5,1.3-0.9,2.1-1.2c0.8-0.3,1.6-0.4,2.4-0.4c0.6,0,1.3,0.1,1.9,0.2
				c0.6,0.1,1.2,0.3,1.7,0.6c0.5,0.3,1,0.6,1.5,1c0.4,0.4,0.8,0.8,1.1,1.4c0.1,0.2,0.2,0.5,0.1,0.7c-0.1,0.2-0.2,0.4-0.3,0.6
				c-0.2,0.2-0.4,0.3-0.7,0.3c-0.3,0-0.6-0.1-0.9-0.3c-0.3-0.4-0.6-0.7-1-0.9c-0.3-0.2-0.7-0.5-1-0.6c-0.4-0.2-0.7-0.3-1.1-0.3
				c-0.4-0.1-0.8-0.1-1.3-0.1c-0.5,0-1,0.1-1.5,0.2c-0.5,0.1-0.9,0.4-1.3,0.6c-0.4,0.3-0.7,0.6-1,1c-0.3,0.4-0.4,0.9-0.4,1.4
				c0,0.6,0.2,1,0.5,1.4c0.3,0.4,0.7,0.7,1.2,1c0.5,0.3,1,0.5,1.6,0.6c0.6,0.2,1.2,0.3,1.7,0.5c0.8,0.2,1.6,0.5,2.4,0.8
				c0.8,0.3,1.5,0.7,2.1,1.2c0.6,0.5,1.1,1,1.4,1.7s0.5,1.4,0.5,2.3c0,1-0.2,1.8-0.6,2.6c-0.4,0.8-0.9,1.5-1.6,2
				c-0.7,0.6-1.4,1-2.3,1.3c-0.9,0.3-1.8,0.5-2.8,0.5c-0.8,0-1.6-0.1-2.3-0.3s-1.4-0.5-2.1-0.9c-0.6-0.4-1.2-0.8-1.6-1.3
				c-0.5-0.5-0.8-1-1.1-1.6c-0.2-0.4-0.2-0.8-0.1-1.1c0.1-0.3,0.3-0.5,0.6-0.7c0.3-0.2,0.6-0.2,0.9-0.1c0.3,0.1,0.5,0.3,0.8,0.7
				c0.2,0.4,0.5,0.8,0.8,1.1c0.3,0.3,0.7,0.6,1.2,0.9c0.4,0.2,0.9,0.4,1.4,0.5c0.5,0.1,1,0.2,1.6,0.2c0.6,0,1.1-0.1,1.7-0.2
				c0.6-0.2,1-0.4,1.5-0.7c0.4-0.3,0.8-0.7,1.1-1.2c0.3-0.5,0.4-1,0.4-1.7c0-0.6-0.1-1.1-0.4-1.5s-0.6-0.7-1.1-1
				c-0.4-0.3-0.9-0.5-1.5-0.7c-0.6-0.2-1.1-0.4-1.7-0.5C709.1,564,708.3,563.8,707.5,563.5z"/>
			<path class="st1" d="M746.6,567.7h-9.2l-2.4,5.7c-0.1,0.3-0.4,0.6-0.7,0.7c-0.3,0.1-0.7,0.1-1,0c-0.3-0.1-0.5-0.4-0.6-0.7
				s-0.1-0.6,0.1-1l8.2-18.8c0.2-0.5,0.6-0.8,1.2-0.8c0.2,0,0.5,0.1,0.7,0.2c0.2,0.1,0.4,0.3,0.5,0.5l8.1,18.8
				c0.1,0.3,0.2,0.6,0.1,1c-0.1,0.3-0.3,0.5-0.6,0.7c-0.3,0.2-0.6,0.2-1,0c-0.3-0.1-0.6-0.4-0.7-0.7L746.6,567.7z M738.4,565.2h7.1
				l-3.6-8.4L738.4,565.2z"/>
			<path class="st1" d="M770.2,553.4l11.1,15.7V554c0-0.3,0.1-0.6,0.4-0.9c0.2-0.2,0.5-0.4,0.9-0.4c0.4,0,0.6,0.1,0.9,0.4
				c0.2,0.2,0.4,0.5,0.4,0.9v18.9c0,0.3-0.1,0.6-0.3,0.8c-0.2,0.2-0.4,0.4-0.7,0.4l-0.1,0h-0.2c-0.3,0-0.5-0.1-0.7-0.3
				c-0.1-0.1-0.2-0.1-0.2-0.2l-11.2-15.8v15.1c0,0.3-0.1,0.6-0.4,0.9c-0.2,0.2-0.5,0.4-0.9,0.4s-0.6-0.1-0.9-0.4
				c-0.2-0.2-0.4-0.5-0.4-0.9V554c0-0.3,0.1-0.6,0.4-0.9c0.2-0.2,0.5-0.3,0.8-0.4h0.1h0.1l0.2,0l0.2,0.1c0,0,0,0,0.1,0l0.1,0.1l0,0
				c0,0,0.1,0,0.1,0.1l0,0c0,0,0,0,0,0l0,0l0.1,0.1l0,0.1h0L770.2,553.4L770.2,553.4z"/>
			<path class="st1" d="M805.2,563.5c-0.8-0.3-1.5-0.7-2.1-1.2c-0.6-0.5-1.1-1-1.5-1.7c-0.4-0.6-0.6-1.4-0.6-2.3
				c0-0.9,0.2-1.7,0.6-2.4c0.4-0.7,0.9-1.3,1.5-1.8c0.6-0.5,1.3-0.9,2.1-1.2c0.8-0.3,1.6-0.4,2.4-0.4c0.6,0,1.3,0.1,1.9,0.2
				c0.6,0.1,1.2,0.3,1.7,0.6c0.5,0.3,1,0.6,1.5,1c0.4,0.4,0.8,0.8,1.1,1.4c0.1,0.2,0.2,0.5,0.1,0.7c-0.1,0.2-0.2,0.4-0.3,0.6
				c-0.2,0.2-0.4,0.3-0.7,0.3c-0.3,0-0.6-0.1-0.9-0.3c-0.3-0.4-0.6-0.7-1-0.9c-0.3-0.2-0.7-0.5-1-0.6c-0.4-0.2-0.7-0.3-1.1-0.3
				c-0.4-0.1-0.8-0.1-1.3-0.1c-0.5,0-1,0.1-1.5,0.2c-0.5,0.1-0.9,0.4-1.3,0.6c-0.4,0.3-0.7,0.6-1,1c-0.2,0.4-0.4,0.9-0.4,1.4
				c0,0.6,0.1,1,0.4,1.4c0.3,0.4,0.7,0.7,1.2,1c0.5,0.3,1,0.5,1.6,0.6c0.6,0.2,1.2,0.3,1.7,0.5c0.8,0.2,1.6,0.5,2.4,0.8
				s1.5,0.7,2.1,1.2c0.6,0.5,1.1,1,1.4,1.7s0.5,1.4,0.5,2.3c0,1-0.2,1.8-0.6,2.6c-0.4,0.8-0.9,1.5-1.6,2c-0.7,0.6-1.4,1-2.3,1.3
				c-0.9,0.3-1.8,0.5-2.8,0.5c-0.8,0-1.6-0.1-2.3-0.3c-0.7-0.2-1.4-0.5-2.1-0.9c-0.6-0.4-1.2-0.8-1.6-1.3c-0.5-0.5-0.8-1-1.1-1.6
				c-0.2-0.4-0.2-0.8-0.1-1.1c0.1-0.3,0.3-0.5,0.6-0.7c0.3-0.2,0.6-0.2,0.9-0.1c0.3,0.1,0.5,0.3,0.8,0.7c0.2,0.4,0.5,0.8,0.8,1.1
				c0.3,0.3,0.7,0.6,1.2,0.9c0.4,0.2,0.9,0.4,1.4,0.5c0.5,0.1,1,0.2,1.6,0.2c0.6,0,1.1-0.1,1.7-0.2s1-0.4,1.5-0.7
				c0.4-0.3,0.8-0.7,1.1-1.2c0.3-0.5,0.4-1,0.4-1.7c0-0.6-0.1-1.1-0.4-1.5c-0.3-0.4-0.6-0.7-1.1-1c-0.4-0.3-0.9-0.5-1.5-0.7
				c-0.6-0.2-1.1-0.4-1.7-0.5C806.8,564,806,563.8,805.2,563.5z"/>
			<path class="st1" d="M854.7,574.1c-0.3,0-0.6-0.2-0.8-0.4c-0.2-0.2-0.3-0.5-0.3-0.9V554c0-0.4,0.1-0.7,0.4-0.9
				c0.2-0.2,0.5-0.4,0.9-0.4h9.3c0.4,0,0.7,0.1,0.9,0.4c0.2,0.2,0.4,0.5,0.4,0.9s-0.1,0.7-0.4,0.9c-0.2,0.2-0.5,0.4-0.9,0.4h-8.1v7
				h5.9c0.4,0,0.7,0.1,0.9,0.3c0.2,0.2,0.4,0.5,0.4,0.9c0,0.3-0.1,0.6-0.4,0.9c-0.2,0.2-0.5,0.3-0.9,0.3h-5.9v6.9h8.1
				c0.4,0,0.7,0.1,0.9,0.4c0.2,0.2,0.4,0.5,0.4,0.9c0,0.4-0.1,0.7-0.4,0.9c-0.2,0.2-0.5,0.4-0.9,0.4H854.7z"/>
			<path class="st1" d="M893.1,552.7c0.4,0,0.7,0.1,0.9,0.4c0.2,0.2,0.4,0.5,0.4,0.9s-0.1,0.7-0.4,0.9c-0.2,0.2-0.5,0.4-0.9,0.4H885
				v6.9h5.8c0.4,0,0.7,0.1,0.9,0.4c0.2,0.2,0.4,0.5,0.4,0.9c0,0.4-0.1,0.6-0.4,0.9c-0.2,0.2-0.5,0.3-0.9,0.3H885v8.3
				c0,0.4-0.1,0.7-0.4,0.9s-0.5,0.4-0.9,0.4c-0.4,0-0.7-0.1-0.9-0.4c-0.2-0.2-0.4-0.5-0.4-0.9v-18.9c0-0.1,0-0.3,0.1-0.4
				c0.1-0.1,0.1-0.3,0.2-0.4c0.1-0.1,0.2-0.2,0.4-0.3c0.2-0.1,0.3-0.1,0.6-0.1H893.1z"/>
			<path class="st1" d="M921.4,552.7c0.4,0,0.7,0.1,0.9,0.4c0.2,0.2,0.4,0.5,0.4,0.9s-0.1,0.7-0.4,0.9c-0.2,0.2-0.5,0.4-0.9,0.4
				h-8.1v6.9h5.8c0.4,0,0.7,0.1,0.9,0.4c0.2,0.2,0.4,0.5,0.4,0.9c0,0.4-0.1,0.6-0.4,0.9c-0.2,0.2-0.5,0.3-0.9,0.3h-5.8v8.3
				c0,0.4-0.1,0.7-0.4,0.9s-0.5,0.4-0.9,0.4c-0.4,0-0.7-0.1-0.9-0.4c-0.2-0.2-0.4-0.5-0.4-0.9v-18.9c0-0.1,0-0.3,0.1-0.4
				c0.1-0.1,0.1-0.3,0.2-0.4c0.1-0.1,0.2-0.2,0.4-0.3c0.2-0.1,0.3-0.1,0.6-0.1H921.4z"/>
			<path class="st1" d="M951.1,553.4c1.3,0.6,2.5,1.3,3.5,2.3c1,1,1.8,2.1,2.3,3.5c0.6,1.3,0.9,2.7,0.9,4.2s-0.3,2.9-0.9,4.2
				c-0.6,1.3-1.4,2.5-2.3,3.4c-1,1-2.1,1.8-3.5,2.3c-1.3,0.6-2.7,0.8-4.2,0.8c-1,0-2-0.1-2.9-0.4c-0.9-0.3-1.8-0.6-2.6-1.1
				c-0.8-0.5-1.5-1-2.2-1.7c-0.7-0.7-1.2-1.4-1.7-2.2c-0.5-0.8-0.8-1.7-1.1-2.6c-0.3-0.9-0.4-1.9-0.4-2.9s0.1-2,0.4-2.9
				c0.3-0.9,0.6-1.8,1.1-2.6c0.5-0.8,1-1.5,1.7-2.2c0.7-0.7,1.4-1.2,2.2-1.7c0.8-0.5,1.7-0.8,2.6-1.1c0.9-0.3,1.9-0.4,2.9-0.4
				C948.4,552.6,949.8,552.9,951.1,553.4z M943.6,555.8c-1,0.4-1.9,1-2.6,1.8c-0.7,0.8-1.3,1.6-1.8,2.6c-0.4,1-0.7,2.1-0.7,3.3
				s0.2,2.2,0.7,3.3c0.4,1,1,1.9,1.8,2.7c0.8,0.8,1.6,1.3,2.6,1.8c1,0.4,2.1,0.7,3.2,0.7s2.2-0.2,3.3-0.7c1-0.4,1.9-1,2.7-1.8
				c0.8-0.8,1.3-1.6,1.8-2.7c0.4-1,0.7-2.1,0.7-3.3s-0.2-2.2-0.7-3.3c-0.4-1-1-1.9-1.8-2.6c-0.8-0.7-1.6-1.3-2.7-1.8
				c-1-0.4-2.1-0.7-3.3-0.7S944.6,555.3,943.6,555.8z"/>
			<path class="st1" d="M987.5,561c-0.2,0.7-0.6,1.2-1,1.8c-0.4,0.5-0.9,1-1.5,1.3c-0.6,0.4-1.2,0.6-1.9,0.8l4.5,7.4
				c0.1,0.2,0.1,0.3,0.2,0.5c0,0.2,0,0.3,0,0.5c-0.1,0.2-0.1,0.3-0.2,0.4c-0.1,0.1-0.2,0.2-0.4,0.3c-0.3,0.2-0.6,0.2-0.9,0.1
				c-0.3-0.1-0.6-0.3-0.7-0.6l-5.1-8.4h-3.2v7.8c0,0.3-0.1,0.6-0.4,0.9c-0.2,0.2-0.5,0.4-0.9,0.4s-0.6-0.1-0.9-0.4
				c-0.2-0.2-0.4-0.5-0.4-0.9V554c0-0.4,0.1-0.7,0.4-0.9c0.2-0.2,0.5-0.4,0.9-0.4h5.6c0.9,0,1.7,0.2,2.5,0.5c0.8,0.3,1.4,0.8,2,1.3
				c0.6,0.5,1,1.2,1.4,2c0.3,0.8,0.5,1.6,0.5,2.4C987.8,559.6,987.7,560.3,987.5,561z M977.1,555.2v7.3h4.4c0.5,0,1-0.1,1.5-0.3
				c0.5-0.2,0.9-0.5,1.2-0.8s0.6-0.7,0.8-1.2c0.2-0.5,0.3-0.9,0.3-1.4c0-0.5-0.1-1-0.3-1.4c-0.2-0.4-0.5-0.8-0.8-1.1
				c-0.3-0.3-0.7-0.6-1.2-0.8s-1-0.3-1.5-0.3H977.1z"/>
			<path class="st1" d="M1012.1,555.2v17.6c0,0.3-0.1,0.6-0.4,0.9c-0.2,0.2-0.5,0.4-0.9,0.4c-0.4,0-0.6-0.1-0.9-0.4
				c-0.2-0.2-0.3-0.5-0.3-0.9v-17.6h-4.9c-0.4,0-0.7-0.1-0.9-0.4c-0.2-0.2-0.4-0.5-0.4-0.9c0-0.4,0.1-0.7,0.4-0.9
				c0.2-0.2,0.5-0.4,0.9-0.4h12.4c0.4,0,0.7,0.1,0.9,0.4c0.2,0.2,0.4,0.5,0.4,0.9c0,0.4-0.1,0.7-0.4,0.9c-0.2,0.2-0.5,0.4-0.9,0.4
				H1012.1z"/>
		</g>
	</g>
	<g>
		<path class="st0" d="M389.4,472.4c0.9,0,1.7,0.2,2.5,0.5c0.8,0.3,1.5,0.8,2.1,1.4c0.6,0.6,1,1.3,1.4,2.1c0.3,0.8,0.5,1.6,0.5,2.6
			c0,0.9-0.2,1.8-0.5,2.6c-0.3,0.8-0.8,1.5-1.4,2.1c-0.6,0.6-1.3,1.1-2.1,1.4c-0.8,0.3-1.6,0.5-2.5,0.5h-19.8v14.3h12.8
			c0.9,0,1.7,0.2,2.5,0.5c0.8,0.3,1.5,0.8,2.1,1.4c0.6,0.6,1,1.3,1.4,2.1c0.4,0.8,0.5,1.6,0.5,2.6c0,0.9-0.2,1.8-0.5,2.5
			c-0.4,0.8-0.8,1.4-1.4,2c-0.6,0.5-1.3,1-2.1,1.3c-0.8,0.3-1.7,0.5-2.5,0.5h-12.8v21c0,0.9-0.2,1.8-0.5,2.5s-0.8,1.5-1.4,2
			c-0.6,0.6-1.3,1-2.1,1.4c-0.8,0.3-1.7,0.5-2.5,0.5c-0.9,0-1.8-0.2-2.6-0.5c-0.8-0.3-1.5-0.8-2.1-1.4c-0.6-0.6-1-1.3-1.4-2
			c-0.3-0.8-0.5-1.6-0.5-2.5v-54.9c0-0.7,0.2-1.4,0.4-2.1c0.2-0.8,0.6-1.4,1.1-2c0.5-0.6,1.2-1.1,2-1.5c0.8-0.4,1.8-0.6,3-0.6H389.4
			z"/>
		<path class="st0" d="M409.9,540c-1.7-0.2-3.2-0.8-4.3-2c-1.1-1.2-1.7-2.6-1.7-4.4v-54.7c0-0.9,0.2-1.8,0.5-2.6
			c0.3-0.8,0.8-1.5,1.4-2.1c0.6-0.6,1.3-1.1,2.1-1.4c0.8-0.3,1.7-0.5,2.6-0.5h26.9c0.9,0,1.8,0.2,2.5,0.5c0.8,0.3,1.5,0.8,2,1.4
			s1,1.3,1.4,2.1c0.3,0.8,0.5,1.6,0.5,2.6c0,0.9-0.2,1.8-0.5,2.6c-0.3,0.8-0.8,1.5-1.4,2.1s-1.3,1.1-2,1.4c-0.8,0.3-1.6,0.5-2.5,0.5
			h-20.4V500h14.4c0.9,0,1.8,0.1,2.6,0.4c0.8,0.3,1.5,0.8,2.1,1.4s1.1,1.3,1.4,2.1c0.3,0.8,0.5,1.6,0.5,2.6c0,0.9-0.2,1.8-0.5,2.5
			c-0.3,0.8-0.8,1.4-1.4,2c-0.6,0.6-1.3,1-2.1,1.3c-0.8,0.3-1.6,0.5-2.6,0.5h-14.4V527h20.4c0.9,0,1.8,0.2,2.5,0.5
			c0.8,0.4,1.5,0.8,2,1.4c0.6,0.6,1,1.3,1.4,2.1c0.3,0.8,0.5,1.6,0.5,2.6c0,0.9-0.2,1.8-0.5,2.6c-0.3,0.8-0.8,1.5-1.4,2.1
			s-1.3,1-2,1.4c-0.8,0.3-1.6,0.5-2.5,0.4H409.9z"/>
		<path class="st0" d="M497,498.7c-0.6,1.9-1.4,3.6-2.4,5.2c-1,1.6-2.3,3-3.7,4.3c-1.5,1.3-3.1,2.3-4.8,3.1l10.8,19.1
			c0.5,0.8,0.7,1.6,0.8,2.5c0.1,0.8,0,1.7-0.2,2.5c-0.2,0.8-0.6,1.6-1.2,2.2c-0.5,0.7-1.2,1.2-2,1.6c-0.8,0.4-1.6,0.7-2.5,0.8
			c-0.8,0.1-1.7,0-2.5-0.2c-0.8-0.2-1.5-0.6-2.2-1.1c-0.7-0.5-1.2-1.2-1.7-1.9l-13.3-23.5h-6.1v20.4c0,0.9-0.2,1.8-0.5,2.5
			s-0.8,1.5-1.4,2c-0.6,0.6-1.3,1-2.1,1.4c-0.8,0.3-1.7,0.5-2.5,0.5c-0.9,0-1.8-0.2-2.6-0.5c-0.8-0.3-1.5-0.8-2.1-1.4
			c-0.6-0.6-1.1-1.3-1.4-2c-0.3-0.8-0.5-1.6-0.5-2.5v-54.8c0-0.9,0.2-1.8,0.5-2.5c0.3-0.8,0.8-1.5,1.4-2c0.6-0.6,1.3-1,2.1-1.4
			c0.8-0.3,1.6-0.5,2.6-0.5h17.6c2.9,0,5.5,0.5,8.1,1.6c2.5,1.1,4.7,2.5,6.6,4.4c1.9,1.9,3.4,4,4.4,6.5c1.1,2.5,1.6,5.2,1.6,8
			C497.9,494.9,497.6,496.9,497,498.7z M466.1,485.3v14.8h11.1c1,0,1.9-0.2,2.9-0.6c0.9-0.4,1.7-1,2.4-1.7c0.7-0.7,1.2-1.5,1.7-2.4
			c0.4-0.9,0.6-1.9,0.6-2.9c0-1-0.2-1.9-0.6-2.8c-0.4-0.9-1-1.6-1.7-2.3s-1.5-1.2-2.4-1.5c-0.9-0.4-1.9-0.6-2.9-0.6H466.1z"/>
		<path class="st0" d="M546,522.7h-24.4l-5.4,13.4c-0.4,0.8-0.8,1.6-1.5,2.2c-0.6,0.6-1.4,1-2.2,1.3c-0.8,0.3-1.7,0.4-2.6,0.4
			c-0.9,0-1.8-0.2-2.6-0.6c-0.8-0.4-1.6-0.8-2.1-1.5c-0.6-0.6-1-1.3-1.2-2.1c-0.3-0.8-0.4-1.6-0.3-2.5c0-0.9,0.2-1.7,0.6-2.6
			l23.7-54.5c0.6-1.2,1.4-2.2,2.4-2.9c1-0.7,2.2-1.1,3.6-1.1c1.3,0,2.4,0.3,3.5,1c1.1,0.7,1.9,1.6,2.4,2.9l23.4,54.6
			c0.4,0.8,0.6,1.7,0.6,2.6c0.1,0.9,0,1.7-0.3,2.4c-0.2,0.8-0.6,1.5-1.2,2.1c-0.5,0.6-1.2,1.1-2.1,1.5c-0.8,0.4-1.7,0.6-2.6,0.6
			c-0.9,0-1.7-0.1-2.5-0.4c-0.8-0.3-1.5-0.7-2.2-1.3c-0.7-0.6-1.2-1.3-1.6-2.2L546,522.7z M527,509.6h13.5l-6.8-16.3L527,509.6z"/>
		<path class="st0" d="M608.8,476.3c0.3-0.8,0.8-1.5,1.4-2c0.6-0.6,1.3-1,2.1-1.4c0.8-0.3,1.6-0.5,2.6-0.5c0.9,0,1.8,0.2,2.6,0.5
			c0.8,0.3,1.5,0.8,2.1,1.4c0.6,0.6,1.1,1.3,1.4,2c0.3,0.8,0.5,1.6,0.5,2.5v36.5c0,3.5-0.6,6.8-1.8,9.8c-1.2,3.1-2.9,5.8-5.2,8.1
			c-2.2,2.3-4.9,4.1-8,5.4c-3.1,1.3-6.6,2-10.4,2c-3.8,0-7.3-0.7-10.5-2c-3.2-1.3-6-3.1-8.3-5.4c-2.3-2.3-4.2-5-5.5-8.1
			c-1.3-3.1-2-6.3-2-9.8v-36.4c0-0.9,0.2-1.8,0.5-2.6c0.3-0.8,0.8-1.5,1.4-2.1c0.6-0.6,1.3-1.1,2.1-1.4c0.8-0.3,1.6-0.5,2.6-0.5
			c0.9,0,1.7,0.2,2.5,0.5c0.8,0.3,1.5,0.8,2.1,1.4c0.6,0.6,1,1.3,1.4,2.1c0.4,0.8,0.5,1.6,0.5,2.6v36c0,1.7,0.3,3.3,1,4.9
			c0.6,1.6,1.5,2.9,2.7,4.1c1.1,1.2,2.5,2.1,4.1,2.8c1.6,0.7,3.3,1,5.3,1c1.9,0,3.7-0.3,5.2-1c1.5-0.7,2.8-1.6,3.9-2.8
			c1.1-1.2,1.9-2.5,2.4-4.1c0.5-1.6,0.8-3.2,0.8-4.9v-36.1C608.3,477.9,608.5,477,608.8,476.3z"/>
		<path class="st0" d="M651.8,472.4c3.2,0,6.2,0.4,9.1,1.2c2.9,0.8,5.7,1.9,8.2,3.4c2.6,1.5,4.9,3.2,7,5.3c2.1,2.1,3.9,4.3,5.4,6.8
			c1.5,2.5,2.7,5.2,3.5,8.1c0.8,2.9,1.2,5.9,1.2,9.1c0,3.2-0.4,6.2-1.2,9.1c-0.8,2.9-2,5.6-3.5,8.1c-1.5,2.5-3.3,4.8-5.4,6.8
			c-2.1,2-4.4,3.8-7,5.2c-2.6,1.4-5.3,2.6-8.2,3.4c-2.9,0.8-6,1.2-9.1,1.2H640c-0.9,0-1.8-0.2-2.6-0.5c-0.8-0.3-1.5-0.8-2.1-1.4
			c-0.6-0.6-1.1-1.3-1.4-2c-0.3-0.8-0.5-1.6-0.5-2.5v-54.8c0-0.9,0.2-1.8,0.5-2.5c0.3-0.8,0.8-1.5,1.4-2c0.6-0.6,1.3-1,2.1-1.4
			c0.8-0.3,1.6-0.5,2.6-0.5H651.8z M673,506.3c0-2.9-0.5-5.7-1.6-8.2c-1.1-2.5-2.6-4.7-4.5-6.6c-1.9-1.9-4.2-3.3-6.7-4.4
			c-2.6-1.1-5.3-1.6-8.3-1.6h-5.3v41.3h5.3c3,0,5.7-0.5,8.3-1.5c2.6-1,4.8-2.4,6.7-4.3c1.9-1.8,3.4-4,4.5-6.5
			C672.5,512.1,673,509.3,673,506.3z"/>
		<path class="st0" d="M775,484.1c0.3,0.8,0.5,1.6,0.5,2.4c0,0.8-0.2,1.6-0.5,2.4c-0.3,0.8-0.8,1.5-1.4,2.1
			c-0.6,0.6-1.4,1.1-2.2,1.4c-0.8,0.3-1.6,0.5-2.5,0.5c-0.8,0-1.7-0.1-2.5-0.4s-1.5-0.7-2.1-1.3c-2.2-2.1-4.5-3.7-7.1-4.7
			c-2.6-1-5.3-1.5-8.1-1.5c-2.9,0-5.6,0.5-8.1,1.6c-2.6,1.1-4.8,2.6-6.7,4.5c-1.9,1.9-3.4,4.1-4.6,6.7c-1.1,2.6-1.7,5.3-1.7,8.3
			c0,2.9,0.5,5.6,1.6,8.1c1.1,2.6,2.5,4.8,4.4,6.7c1.9,1.9,4.1,3.5,6.6,4.6c2.5,1.1,5.3,1.7,8.3,1.8c2.9,0,5.6-0.4,8.1-1.4
			c2.5-1,4.9-2.5,7.2-4.8c0.6-0.6,1.3-1,2.1-1.3c0.8-0.3,1.6-0.4,2.5-0.4c0.8,0,1.6,0.2,2.5,0.4c0.8,0.3,1.5,0.7,2.1,1.3
			c0.7,0.6,1.2,1.3,1.5,2.1c0.3,0.8,0.5,1.6,0.5,2.5c0,0.8-0.2,1.7-0.5,2.5c-0.3,0.8-0.8,1.5-1.4,2.1c-3.5,3.4-7.3,6-11.5,7.6
			c-4.2,1.7-8.6,2.5-13.1,2.5c-3.1,0-6.1-0.4-9-1.2c-2.9-0.8-5.6-2-8.1-3.5c-2.5-1.5-4.8-3.3-6.9-5.4c-2.1-2.1-3.8-4.4-5.3-7
			c-1.5-2.5-2.7-5.3-3.5-8.2c-0.8-2.9-1.2-5.9-1.2-9.1c0-3,0.4-5.9,1.2-8.8c0.8-2.9,1.9-5.6,3.3-8.1c1.4-2.5,3.2-4.9,5.2-7
			c2-2.1,4.3-4,6.9-5.6c2.5-1.6,5.3-2.8,8.3-3.6c3-0.9,6.2-1.3,9.5-1.3c4.4,0,8.8,0.8,13,2.5c4.2,1.7,8,4.2,11.4,7.6
			C774.2,482.7,774.7,483.4,775,484.1z"/>
		<path class="st0" d="M823.4,473.1c2.9,0.8,5.7,2,8.2,3.5c2.6,1.5,4.9,3.3,7,5.4c2.1,2.1,3.9,4.4,5.4,7c1.5,2.6,2.7,5.3,3.5,8.2
			c0.8,2.9,1.2,6,1.2,9.1c0,4.8-0.9,9.2-2.7,13.4c-1.8,4.2-4.3,7.8-7.4,10.9c-3.1,3.1-6.8,5.6-10.9,7.4c-4.2,1.8-8.6,2.7-13.4,2.7
			c-4.8,0-9.2-0.9-13.4-2.7c-4.2-1.8-7.8-4.3-10.9-7.4c-3.1-3.1-5.5-6.8-7.3-10.9c-1.8-4.2-2.7-8.6-2.7-13.4c0-3.2,0.4-6.2,1.2-9.1
			c0.8-2.9,2-5.7,3.4-8.2c1.5-2.6,3.3-4.9,5.3-7c2.1-2.1,4.4-3.9,6.9-5.4c2.5-1.5,5.3-2.6,8.2-3.5c2.9-0.8,6-1.2,9.1-1.2
			S820.5,472.3,823.4,473.1z M806,486.8c-2.6,1.1-4.8,2.6-6.7,4.5c-1.9,1.9-3.4,4.1-4.5,6.7c-1.1,2.6-1.6,5.3-1.6,8.2
			c0,3,0.5,5.8,1.6,8.4c1.1,2.6,2.6,4.8,4.5,6.7c1.9,1.9,4.1,3.4,6.7,4.5s5.3,1.6,8.3,1.6c3,0,5.7-0.5,8.3-1.6
			c2.6-1.1,4.8-2.6,6.7-4.5c1.9-1.9,3.4-4.1,4.5-6.7c1.1-2.6,1.6-5.4,1.6-8.4c0-2.9-0.5-5.7-1.6-8.2c-1.1-2.6-2.6-4.8-4.5-6.7
			c-1.9-1.9-4.2-3.4-6.7-4.5c-2.6-1.1-5.3-1.7-8.3-1.7C811.4,485.2,808.6,485.7,806,486.8z"/>
		<path class="st0" d="M871,527l19.3,0.1c0.9,0,1.8,0.2,2.6,0.5c0.8,0.3,1.5,0.8,2.1,1.4c0.6,0.6,1,1.3,1.4,2.1
			c0.3,0.8,0.5,1.6,0.5,2.6c0,0.9-0.2,1.8-0.5,2.6c-0.3,0.8-0.8,1.5-1.4,2.1c-0.6,0.6-1.3,1-2.1,1.4c-0.8,0.3-1.6,0.5-2.6,0.4h-26.1
			c-0.2,0-0.4,0-0.6-0.1h-0.2l-0.5-0.1c-1.5-0.4-2.7-1.1-3.6-2.2c-0.9-1.1-1.4-2.5-1.4-4.1v-54.8c0-0.9,0.2-1.8,0.5-2.5
			c0.3-0.8,0.8-1.5,1.4-2c0.6-0.6,1.3-1,2.1-1.4c0.8-0.3,1.6-0.5,2.6-0.5c0.9,0,1.7,0.2,2.5,0.5c0.8,0.3,1.5,0.8,2.1,1.4
			c0.6,0.6,1,1.3,1.4,2c0.4,0.8,0.5,1.6,0.5,2.5V527z"/>
		<path class="st0" d="M938,473.1c2.9,0.8,5.7,2,8.2,3.5c2.6,1.5,4.9,3.3,7,5.4c2.1,2.1,3.9,4.4,5.4,7c1.5,2.6,2.7,5.3,3.5,8.2
			c0.8,2.9,1.2,6,1.2,9.1c0,4.8-0.9,9.2-2.7,13.4c-1.8,4.2-4.3,7.8-7.4,10.9c-3.1,3.1-6.8,5.6-10.9,7.4c-4.2,1.8-8.6,2.7-13.4,2.7
			c-4.8,0-9.2-0.9-13.4-2.7c-4.2-1.8-7.8-4.3-10.9-7.4c-3.1-3.1-5.5-6.8-7.3-10.9c-1.8-4.2-2.7-8.6-2.7-13.4c0-3.2,0.4-6.2,1.2-9.1
			c0.8-2.9,2-5.7,3.4-8.2c1.5-2.6,3.3-4.9,5.3-7c2.1-2.1,4.4-3.9,6.9-5.4c2.5-1.5,5.3-2.6,8.2-3.5c2.9-0.8,6-1.2,9.1-1.2
			C932.1,471.9,935.1,472.3,938,473.1z M920.7,486.8c-2.6,1.1-4.8,2.6-6.7,4.5c-1.9,1.9-3.4,4.1-4.5,6.7c-1.1,2.6-1.6,5.3-1.6,8.2
			c0,3,0.5,5.8,1.6,8.4c1.1,2.6,2.6,4.8,4.5,6.7c1.9,1.9,4.1,3.4,6.7,4.5c2.6,1.1,5.3,1.6,8.3,1.6c3,0,5.7-0.5,8.3-1.6
			c2.6-1.1,4.8-2.6,6.7-4.5c1.9-1.9,3.4-4.1,4.5-6.7c1.1-2.6,1.6-5.4,1.6-8.4c0-2.9-0.5-5.7-1.6-8.2c-1.1-2.6-2.6-4.8-4.5-6.7
			c-1.9-1.9-4.2-3.4-6.7-4.5c-2.6-1.1-5.3-1.7-8.3-1.7C926,485.2,923.2,485.7,920.7,486.8z"/>
		<path class="st0" d="M1016.5,498.7c-0.6,1.9-1.4,3.6-2.4,5.2c-1,1.6-2.3,3-3.7,4.3c-1.5,1.3-3.1,2.3-4.8,3.1l10.8,19.1
			c0.5,0.8,0.7,1.6,0.8,2.5c0.1,0.8,0,1.7-0.2,2.5c-0.2,0.8-0.6,1.6-1.2,2.2c-0.5,0.7-1.2,1.2-2,1.6c-0.8,0.4-1.6,0.7-2.5,0.8
			s-1.7,0-2.5-0.2c-0.8-0.2-1.5-0.6-2.2-1.1c-0.7-0.5-1.2-1.2-1.7-1.9l-13.3-23.5h-6.1v20.4c0,0.9-0.2,1.8-0.5,2.5
			c-0.4,0.8-0.8,1.5-1.4,2c-0.6,0.6-1.3,1-2.1,1.4c-0.8,0.3-1.7,0.5-2.5,0.5c-0.9,0-1.8-0.2-2.6-0.5c-0.8-0.3-1.5-0.8-2.1-1.4
			c-0.6-0.6-1.1-1.3-1.4-2s-0.5-1.6-0.5-2.5v-54.8c0-0.9,0.2-1.8,0.5-2.5c0.3-0.8,0.8-1.5,1.4-2c0.6-0.6,1.3-1,2.1-1.4
			c0.8-0.3,1.6-0.5,2.6-0.5h17.6c2.9,0,5.5,0.5,8.1,1.6c2.5,1.1,4.7,2.5,6.6,4.4c1.9,1.9,3.4,4,4.4,6.5c1.1,2.5,1.6,5.2,1.6,8
			C1017.4,494.9,1017.1,496.9,1016.5,498.7z M985.6,485.3v14.8h11.1c1,0,1.9-0.2,2.9-0.6c0.9-0.4,1.7-1,2.4-1.7
			c0.7-0.7,1.2-1.5,1.7-2.4c0.4-0.9,0.6-1.9,0.6-2.9c0-1-0.2-1.9-0.6-2.8c-0.4-0.9-1-1.6-1.7-2.3s-1.5-1.2-2.4-1.5
			c-0.9-0.4-1.9-0.6-2.9-0.6H985.6z"/>
	</g>
</g>
</svg>
